<?xml version="1.0" encoding="UTF-8"?>
<svg xmlns="http://www.w3.org/2000/svg" xmlns:xlink="http://www.w3.org/1999/xlink" width="9px" height="9px" viewBox="0 0 9 8" version="1.1">
<g id="surface1">
<path style=" stroke:none;fill-rule:nonzero;fill:rgb(100%,100%,100%);fill-opacity:1;" d="M 8.4375 0.0078125 C 8.300781 0.0234375 8.160156 0.0703125 7.976562 0.152344 C 7.664062 0.296875 7.300781 0.53125 6.835938 0.886719 C 6.1875 1.386719 5.320312 2.164062 4.402344 3.066406 C 3.9375 3.527344 3.425781 4.050781 3.054688 4.445312 C 2.996094 4.511719 2.945312 4.566406 2.941406 4.566406 C 2.941406 4.566406 2.894531 4.542969 2.839844 4.515625 C 2.660156 4.433594 2.226562 4.234375 2.082031 4.175781 C 1.484375 3.925781 1.070312 3.796875 0.738281 3.753906 C 0.644531 3.742188 0.480469 3.746094 0.402344 3.761719 C 0.242188 3.792969 0.117188 3.875 0.0546875 3.996094 C 0.015625 4.0625 0.00390625 4.109375 0.00390625 4.191406 C 0.00390625 4.257812 0.00390625 4.265625 0.0273438 4.304688 C 0.046875 4.34375 0.0664062 4.359375 0.191406 4.46875 C 0.5 4.726562 0.839844 5.042969 1.085938 5.308594 C 1.644531 5.894531 2.230469 6.691406 2.898438 7.769531 C 3.019531 7.960938 3.066406 7.996094 3.183594 7.996094 C 3.230469 7.996094 3.253906 7.996094 3.277344 7.984375 C 3.359375 7.953125 3.390625 7.914062 3.445312 7.785156 C 3.539062 7.566406 3.726562 7.167969 3.84375 6.933594 C 4.746094 5.101562 5.824219 3.550781 7.113281 2.230469 C 7.480469 1.855469 7.796875 1.558594 8.394531 1.035156 C 8.863281 0.628906 8.949219 0.535156 8.988281 0.394531 C 9.046875 0.1875 8.855469 0.0117188 8.5625 0.00390625 C 8.519531 0 8.460938 0.00390625 8.4375 0.0078125 Z M 8.4375 0.0078125 "/>
</g>
</svg>
